<svg xmlns="http://www.w3.org/2000/svg" viewBox="0 0 100 115" fill="none">
  <polygon points="50,3 95,28 95,78 50,103 5,78 5,28" fill="none" stroke="#B0BEC5" stroke-width="2.2" stroke-linejoin="round"/>
  <polygon points="50,12 86,33 86,76 50,97 14,76 14,33" fill="#0A1628"/>
  <rect x="20" y="34" width="5" height="47" rx="2" fill="#00C853"/>
  <path d="M 25,34 Q 44,34 44,46 Q 44,58 25,58" fill="none" stroke="#00C853" stroke-width="5" stroke-linecap="round"/>
  <path d="M 25,58 Q 47,58 47,70 Q 47,81 25,81" fill="none" stroke="#00C853" stroke-width="5" stroke-linecap="round"/>
  <line x1="55" y1="34" x2="79" y2="81" stroke="#B0BEC5" stroke-width="5" stroke-linecap="round"/>
  <line x1="79" y1="34" x2="55" y2="81" stroke="#B0BEC5" stroke-width="5" stroke-linecap="round"/>
  <circle cx="55" cy="34" r="3.5" fill="#00E676"/>
  <circle cx="79" cy="34" r="3.5" fill="#00E676"/>
  <circle cx="67" cy="57.5" r="3.5" fill="#00E676"/>
  <circle cx="55" cy="81" r="3.5" fill="#00E676"/>
  <circle cx="79" cy="81" r="3.5" fill="#00E676"/>
</svg>
